<?xml version="1.0" standalone="no"?>
<!DOCTYPE svg PUBLIC "-//W3C//DTD SVG 20010904//EN"
 "http://www.w3.org/TR/2001/REC-SVG-20010904/DTD/svg10.dtd">
<svg version="1.0" xmlns="http://www.w3.org/2000/svg"
 width="1134.000000pt" height="423.000000pt" viewBox="0 0 1134.000000 423.000000"
 preserveAspectRatio="xMidYMid meet">

<g transform="translate(0.000000,423.000000) scale(0.100000,-0.100000)"
fill="#000000" stroke="none">
<path d="M7520 3243 l1 -278 287 -218 c158 -119 310 -235 337 -256 28 -21 194
-148 370 -281 176 -134 357 -272 403 -307 l82 -64 0 279 0 280 -727 554 c-401
305 -734 557 -740 562 -10 6 -13 -51 -13 -271z"/>
<path d="M8440 3243 l1 -278 236 -175 c130 -96 365 -270 521 -387 l283 -212
179 136 178 136 -126 97 c-131 99 -694 527 -1047 795 -110 83 -206 155 -212
159 -10 6 -13 -51 -13 -271z"/>
<path d="M2851 3044 l-174 -63 -41 24 c-65 38 -185 74 -287 85 -144 16 -401
-8 -698 -65 -68 -14 -125 -26 -126 -27 -2 -2 20 -328 25 -365 0 -2 55 -3 122
-3 106 0 129 3 184 25 115 46 230 69 349 69 139 1 198 -17 265 -83 57 -55 70
-93 70 -207 l0 -81 -277 -6 c-293 -6 -362 -15 -485 -60 -185 -67 -327 -210
-381 -382 -33 -104 -30 -279 6 -390 67 -205 220 -329 454 -370 144 -25 316
-15 433 26 87 31 87 30 82 207 l-4 152 -119 0 c-102 0 -123 -3 -154 -21 -29
-18 -46 -21 -91 -16 -124 13 -187 87 -187 220 -1 123 46 202 148 249 48 22 63
23 313 26 l262 3 0 -273 c0 -297 8 -374 46 -458 47 -103 40 -100 251 -100 101
0 183 2 183 4 0 2 7 39 15 81 10 52 11 83 5 95 -6 10 -17 47 -26 82 -14 53
-18 150 -23 603 -8 579 -5 540 -56 668 -7 16 2 17 109 17 l116 0 0 200 0 200
-67 -1 c-57 -1 -97 -12 -242 -65z"/>
<path d="M4850 3045 l-176 -63 -79 39 c-44 22 -114 47 -155 56 -98 21 -315 21
-480 -1 -149 -20 -415 -67 -430 -76 -8 -5 -7 -58 2 -188 l12 -182 119 0 c109
0 127 3 220 34 239 81 399 87 532 18 88 -45 115 -101 115 -237 l0 -95 -207 0
c-115 0 -253 -5 -307 -10 -401 -39 -645 -273 -646 -618 0 -285 149 -488 415
-564 67 -19 104 -22 230 -22 158 0 234 13 315 54 l40 20 0 93 c0 50 -3 122 -7
160 l-6 67 -122 0 c-96 0 -125 -3 -135 -15 -19 -23 -77 -29 -139 -15 -105 23
-160 117 -148 249 6 72 35 129 87 173 70 61 111 68 385 68 l243 0 4 -287 c6
-323 16 -392 71 -484 l32 -54 191 -3 191 -2 13 79 c10 67 10 87 -3 128 -8 26
-18 59 -23 73 -4 14 -10 268 -14 565 -7 576 -5 556 -57 691 -4 11 16 14 111
14 l116 0 0 200 0 200 -67 -1 c-57 -1 -97 -11 -243 -64z"/>
<path d="M5905 3084 c-16 -3 -77 -11 -135 -20 -91 -13 -330 -61 -338 -68 -3
-4 17 -301 24 -343 l5 -33 112 0 c105 0 116 2 192 35 126 54 194 68 310 63 85
-3 109 -8 157 -31 32 -16 71 -45 88 -65 59 -72 61 -89 58 -523 l-3 -394 -30
-53 c-34 -63 -71 -97 -141 -129 -106 -48 -236 -40 -339 22 -57 35 -59 35 -175
35 l-118 0 -5 -52 c-4 -29 -9 -102 -12 -163 -3 -60 -8 -122 -11 -137 -5 -25
-3 -27 85 -47 388 -91 710 -61 930 88 175 119 273 280 301 494 18 136 8 732
-14 817 -47 183 -172 338 -336 419 -134 65 -217 83 -410 86 -91 2 -178 1 -195
-1z"/>
<path d="M9790 2292 c-69 -54 -208 -161 -310 -238 -324 -246 -752 -572 -850
-648 -52 -40 -116 -88 -142 -107 l-47 -34 -1 -278 c0 -220 3 -277 13 -271 6 4
190 143 407 308 217 166 442 337 500 381 58 44 208 158 333 253 l227 173 0
279 c0 154 -1 280 -2 279 -2 0 -59 -44 -128 -97z"/>
<path d="M7432 2330 c-122 -52 -176 -199 -116 -319 85 -169 330 -168 410 2 48
105 18 224 -74 291 -39 27 -53 31 -120 33 -43 2 -87 -2 -100 -7z"/>
<path d="M8324 1862 c-122 -92 -353 -264 -512 -382 l-291 -215 0 -278 c-1
-220 2 -277 12 -271 19 12 1196 903 1364 1034 21 16 19 18 -152 148 -96 73
-180 132 -187 131 -7 0 -113 -75 -234 -167z"/>
</g>
</svg>
